<svg width="209" height="209" viewBox="0 0 209 209" fill="none" xmlns="http://www.w3.org/2000/svg">
<mask id="mask0_126_236" style="mask-type:alpha" maskUnits="userSpaceOnUse" x="0" y="0" width="209" height="209">
<path fill-rule="evenodd" clip-rule="evenodd" d="M104.494 0C162.205 0 208.989 46.7837 208.989 104.494C208.988 162.205 162.205 208.988 104.494 208.988C46.7837 208.988 0.00012207 162.205 0 104.494C0 46.7837 46.7837 0 104.494 0ZM104.23 201.46C157.929 201.46 201.46 157.929 201.46 104.23C201.46 50.5312 157.929 7 104.23 7C50.5314 7 7 50.5312 7 104.23C7 157.929 50.5314 201.46 104.23 201.46Z" fill="#D9D9D9"/>
</mask>
<g mask="url(#mask0_126_236)">
<mask id="path-2-outside-1_126_236" maskUnits="userSpaceOnUse" x="102.494" y="102.494" width="109" height="109" fill="black">
<rect fill="white" x="102.494" y="102.494" width="109" height="109"/>
<path fill-rule="evenodd" clip-rule="evenodd" d="M208.989 104.494H104.494V208.988C162.205 208.988 208.988 162.205 208.989 104.494Z"/>
</mask>
<path fill-rule="evenodd" clip-rule="evenodd" d="M208.989 104.494H104.494V208.988C162.205 208.988 208.988 162.205 208.989 104.494Z" fill="#32A84F"/>
<path d="M104.494 104.494V102.494H102.494V104.494H104.494ZM208.989 104.494L210.989 104.494L210.989 102.494H208.989V104.494ZM104.494 208.988H102.494V210.988H104.494V208.988ZM104.494 106.494H208.989V102.494H104.494V106.494ZM106.494 208.988V104.494H102.494V208.988H106.494ZM206.989 104.494C206.988 161.1 161.1 206.988 104.494 206.988V210.988C163.309 210.988 210.988 163.309 210.989 104.494L206.989 104.494Z" fill="black" mask="url(#path-2-outside-1_126_236)"/>
<mask id="path-4-outside-2_126_236" maskUnits="userSpaceOnUse" x="-2" y="102.494" width="109" height="109" fill="black">
<rect fill="white" x="-2" y="102.494" width="109" height="109"/>
<path fill-rule="evenodd" clip-rule="evenodd" d="M104.494 208.988C46.7837 208.988 7.83413e-05 162.205 0 104.494H104.494L104.494 208.988Z"/>
</mask>
<path fill-rule="evenodd" clip-rule="evenodd" d="M104.494 208.988C46.7837 208.988 7.83413e-05 162.205 0 104.494H104.494L104.494 208.988Z" fill="#388BFC"/>
<path d="M104.494 208.988V210.988H106.494L106.494 208.988L104.494 208.988ZM0 104.494V102.494H-2L-2 104.494L0 104.494ZM104.494 104.494L106.494 104.494L106.494 102.494H104.494V104.494ZM104.494 206.988C47.8883 206.988 2.00008 161.1 2 104.494L-2 104.494C-1.99992 163.309 45.6791 210.988 104.494 210.988V206.988ZM0 106.494H104.494V102.494H0V106.494ZM102.494 104.494L102.494 208.988L106.494 208.988L106.494 104.494L102.494 104.494Z" fill="black" mask="url(#path-4-outside-2_126_236)"/>
<mask id="path-6-outside-3_126_236" maskUnits="userSpaceOnUse" x="102.494" y="-2" width="109" height="109" fill="black">
<rect fill="white" x="102.494" y="-2" width="109" height="109"/>
<path fill-rule="evenodd" clip-rule="evenodd" d="M208.989 104.494C208.989 46.7837 162.205 0 104.494 0V104.494H208.989Z"/>
</mask>
<path fill-rule="evenodd" clip-rule="evenodd" d="M208.989 104.494C208.989 46.7837 162.205 0 104.494 0V104.494H208.989Z" fill="#FFBA00"/>
<path d="M104.494 0V-2H102.494V0H104.494ZM208.989 104.494V106.494H210.989V104.494H208.989ZM104.494 104.494H102.494V106.494H104.494V104.494ZM104.494 2C161.1 2 206.989 47.8882 206.989 104.494H210.989C210.989 45.6791 163.309 -2 104.494 -2V2ZM106.494 104.494V0H102.494V104.494H106.494ZM208.989 102.494H104.494V106.494H208.989V102.494Z" fill="black" mask="url(#path-6-outside-3_126_236)"/>
<mask id="path-8-outside-4_126_236" maskUnits="userSpaceOnUse" x="-2" y="-2" width="109" height="109" fill="black">
<rect fill="white" x="-2" y="-2" width="109" height="109"/>
<path fill-rule="evenodd" clip-rule="evenodd" d="M104.494 0C46.7837 0 0 46.7837 0 104.494H104.494V0Z"/>
</mask>
<path fill-rule="evenodd" clip-rule="evenodd" d="M104.494 0C46.7837 0 0 46.7837 0 104.494H104.494V0Z" fill="#FF503F"/>
<path d="M0 104.494H-2V106.494H0V104.494ZM104.494 0H106.494V-2H104.494V0ZM104.494 104.494V106.494H106.494V104.494H104.494ZM2 104.494C2 47.8882 47.8882 2 104.494 2V-2C45.6791 -2 -2 45.6791 -2 104.494H2ZM104.494 102.494H0V106.494H104.494V102.494ZM102.494 0V104.494H106.494V0H102.494Z" fill="black" mask="url(#path-8-outside-4_126_236)"/>
</g>
</svg>
