<svg width="1529" height="538" viewBox="0 0 1529 538" fill="none" xmlns="http://www.w3.org/2000/svg">
<mask id="mask0_95_194" style="mask-type:alpha" maskUnits="userSpaceOnUse" x="0" y="0" width="1529" height="538">
<rect width="1529" height="538" fill="#D9D9D9"/>
</mask>
<g mask="url(#mask0_95_194)">
<path d="M1530 0V134.526V225.382L1310.64 308.707L115.463 464.316L-2.49805 437.21V402.575C54.2238 390.026 815.2 446.245 1530 0Z" fill="#428EFF" stroke="#202124" stroke-width="3"/>
<path d="M1531 105.914V258.511L1328.71 328.284L158.13 513.007L-2.49805 459.798V424.159C45.2889 424.159 843.31 438.214 1531 105.914Z" fill="#FF5145" stroke="#202124" stroke-width="3"/>
<path d="M1531.42 333.273L1531.5 333.043V332.802V201.789V199.679L1529.5 200.373C799.773 454.423 97.1786 449.014 5.1721 448.305C1.77142 448.279 -0.79512 448.259 -2.49805 448.259H-3.99805V449.759V487.908V489.503L-2.40623 489.406L1389.04 404.072L1389.05 404.071L1389.06 404.07L1510.03 395.035L1511.03 394.961L1511.34 394.01L1531.42 333.273Z" fill="#38A852" stroke="#202124" stroke-width="3"/>
<path d="M1530.46 371.599L1530.99 371.15V370.449V291.139V289.211L1529.13 289.685C814.522 470.845 19.1699 472.353 -2.49805 472.353H-3.99805V473.853V502.465V503.965H-2.49805H67.2749H67.3022L67.3295 503.964L1431.16 454.27L1431.68 454.251L1432.07 453.921L1530.46 371.599Z" fill="#FFBB01" stroke="#202124" stroke-width="3"/>
<path d="M1529.49 366.935V432.191L1480.3 517.524L68.2788 522.042H-3V494.936C107.834 494.936 814.196 492.928 1529.49 366.935Z" fill="#202124"/>
<path d="M1529.49 538.105H-2.49805V517.524C236.437 517.524 1012.97 509.995 1529.49 429.681V538.105Z" fill="#DADCE0"/>
</g>
</svg>
