<svg width="361" height="262" viewBox="0 0 361 262" fill="none" xmlns="http://www.w3.org/2000/svg">
<g opacity="0.3">
<path d="M328.36 130.701V65.3479H263.006V130.701H328.36Z" stroke="white" stroke-width="0.5" stroke-miterlimit="10"/>
<path d="M295.683 130.702C313.73 130.702 328.36 116.072 328.36 98.0247C328.36 79.9778 313.73 65.3479 295.683 65.3479C277.636 65.3479 263.006 79.9778 263.006 98.0247C263.006 116.072 277.636 130.702 295.683 130.702Z" stroke="white" stroke-width="0.5" stroke-miterlimit="10"/>
<path d="M295.683 65.3594V130.701" stroke="white" stroke-width="0.5" stroke-miterlimit="10"/>
<path d="M263.018 98.0247H338.763" stroke="white" stroke-width="0.5" stroke-miterlimit="10"/>
<path d="M328.36 196.055V130.702H263.006V196.055H328.36Z" stroke="white" stroke-width="0.5" stroke-miterlimit="10"/>
<path d="M295.683 196.055C313.73 196.055 328.36 181.425 328.36 163.378C328.36 145.331 313.73 130.702 295.683 130.702C277.636 130.702 263.006 145.331 263.006 163.378C263.006 181.425 277.636 196.055 295.683 196.055Z" stroke="white" stroke-width="0.5" stroke-miterlimit="10"/>
<path d="M295.683 130.702V196.055" stroke="white" stroke-width="0.5" stroke-miterlimit="10"/>
<path d="M263.018 163.378H328.36" stroke="white" stroke-width="0.5" stroke-miterlimit="10"/>
<path d="M328.36 261.397V196.044H263.006V261.397H328.36Z" stroke="white" stroke-width="0.5" stroke-miterlimit="10"/>
<path d="M295.683 261.409C313.73 261.409 328.36 246.779 328.36 228.732C328.36 210.685 313.73 196.055 295.683 196.055C277.636 196.055 263.006 210.685 263.006 228.732C263.006 246.779 277.636 261.409 295.683 261.409Z" stroke="white" stroke-width="0.5" stroke-miterlimit="10"/>
<path d="M295.683 196.055V261.409" stroke="white" stroke-width="0.5" stroke-miterlimit="10"/>
<path d="M263.018 228.732H328.36" stroke="white" stroke-width="0.5" stroke-miterlimit="10"/>
<path d="M263.018 130.713V65.3595H197.664V130.713H263.018Z" stroke="white" stroke-width="0.5" stroke-miterlimit="10"/>
<path d="M230.341 130.702C248.388 130.702 263.018 116.072 263.018 98.0247C263.018 79.9778 248.388 65.3479 230.341 65.3479C212.294 65.3479 197.664 79.9778 197.664 98.0247C197.664 116.072 212.294 130.702 230.341 130.702Z" stroke="white" stroke-width="0.5" stroke-miterlimit="10"/>
<path d="M230.341 65.3594V130.701" stroke="white" stroke-width="0.5" stroke-miterlimit="10"/>
<path d="M197.664 98.0247H263.018" stroke="white" stroke-width="0.5" stroke-miterlimit="10"/>
<path d="M263.006 196.055V130.702H197.652V196.055H263.006Z" stroke="white" stroke-width="0.5" stroke-miterlimit="10"/>
<path d="M230.341 196.055C248.388 196.055 263.018 181.425 263.018 163.378C263.018 145.331 248.388 130.702 230.341 130.702C212.294 130.702 197.664 145.331 197.664 163.378C197.664 181.425 212.294 196.055 230.341 196.055Z" stroke="white" stroke-width="0.5" stroke-miterlimit="10"/>
<path d="M230.341 130.702V196.055" stroke="white" stroke-width="0.5" stroke-miterlimit="10"/>
<path d="M197.664 163.378H263.018" stroke="white" stroke-width="0.5" stroke-miterlimit="10"/>
<path d="M197.664 130.702V65.3479H132.31V130.702H197.664Z" stroke="white" stroke-width="0.5" stroke-miterlimit="10"/>
<path d="M164.987 130.702C183.034 130.702 197.664 116.072 197.664 98.0247C197.664 79.9778 183.034 65.3479 164.987 65.3479C146.94 65.3479 132.31 79.9778 132.31 98.0247C132.31 116.072 146.94 130.702 164.987 130.702Z" stroke="white" stroke-width="0.5" stroke-miterlimit="10"/>
<path d="M164.987 65.3594V130.701" stroke="white" stroke-width="0.5" stroke-miterlimit="10"/>
<path d="M132.31 98.0247H197.664" stroke="white" stroke-width="0.5" stroke-miterlimit="10"/>
<path d="M361.037 261.409V196.055H328.36V261.409H361.037Z" stroke="white" stroke-width="0.5" stroke-miterlimit="10"/>
<path d="M361.037 261.397C356.695 261.479 352.38 260.694 348.344 259.089C344.309 257.484 340.634 255.09 337.534 252.049C334.435 249.007 331.973 245.377 330.292 241.373C328.611 237.369 327.745 233.069 327.745 228.726C327.745 224.383 328.611 220.084 330.292 216.08C331.973 212.075 334.435 208.446 337.534 205.404C340.634 202.362 344.309 199.969 348.344 198.363C352.38 196.758 356.695 195.974 361.037 196.055" stroke="white" stroke-width="0.5" stroke-miterlimit="10"/>
<path d="M328.36 228.732H361.037" stroke="white" stroke-width="0.5" stroke-miterlimit="10"/>
<path d="M361.037 196.067V130.713H328.36V196.067H361.037Z" stroke="white" stroke-width="0.5" stroke-miterlimit="10"/>
<path d="M361.037 196.055C356.745 196.055 352.496 195.21 348.532 193.568C344.567 191.926 340.965 189.519 337.931 186.484C334.896 183.45 332.489 179.848 330.847 175.883C329.205 171.919 328.36 167.67 328.36 163.378C328.36 159.087 329.205 154.838 330.847 150.873C332.489 146.909 334.896 143.307 337.931 140.272C340.965 137.238 344.567 134.831 348.532 133.189C352.496 131.547 356.745 130.702 361.037 130.702" stroke="white" stroke-width="0.5" stroke-miterlimit="10"/>
<path d="M328.36 163.378H361.037" stroke="white" stroke-width="0.5" stroke-miterlimit="10"/>
<path d="M361.037 130.713V65.3594H328.36V130.713H361.037Z" stroke="white" stroke-width="0.5" stroke-miterlimit="10"/>
<path d="M361.037 130.701C352.37 130.701 344.059 127.259 337.931 121.131C331.803 115.003 328.36 106.691 328.36 98.0246C328.36 89.3582 331.803 81.0467 337.931 74.9187C344.059 68.7906 352.37 65.3479 361.037 65.3479" stroke="white" stroke-width="0.5" stroke-miterlimit="10"/>
<path d="M328.36 98.0247H361.037" stroke="white" stroke-width="0.5" stroke-miterlimit="10"/>
<path d="M328.36 65.3594V0.00585938L263.006 0.00585938V65.3594H328.36Z" stroke="white" stroke-width="0.5" stroke-miterlimit="10"/>
<path d="M295.683 65.3594C313.73 65.3594 328.36 50.7295 328.36 32.6826C328.36 14.6357 313.73 0.0057373 295.683 0.0057373C277.636 0.0057373 263.006 14.6357 263.006 32.6826C263.006 50.7295 277.636 65.3594 295.683 65.3594Z" stroke="white" stroke-width="0.5" stroke-miterlimit="10"/>
<path d="M295.683 0.0057373V65.3594" stroke="white" stroke-width="0.5" stroke-miterlimit="10"/>
<path d="M263.018 32.6826H338.763" stroke="white" stroke-width="0.5" stroke-miterlimit="10"/>
<path d="M263.006 65.3594V0.00585938L197.653 0.00585938V65.3594H263.006Z" stroke="white" stroke-width="0.5" stroke-miterlimit="10"/>
<path d="M230.341 65.3594C248.388 65.3594 263.018 50.7295 263.018 32.6826C263.018 14.6357 248.388 0.0057373 230.341 0.0057373C212.294 0.0057373 197.664 14.6357 197.664 32.6826C197.664 50.7295 212.294 65.3594 230.341 65.3594Z" stroke="white" stroke-width="0.5" stroke-miterlimit="10"/>
<path d="M230.341 0.0057373V65.3594" stroke="white" stroke-width="0.5" stroke-miterlimit="10"/>
<path d="M197.664 32.6826H263.018" stroke="white" stroke-width="0.5" stroke-miterlimit="10"/>
<path d="M197.664 65.3595V0.0057373L132.31 0.0057373V65.3595H197.664Z" stroke="white" stroke-width="0.5" stroke-miterlimit="10"/>
<path d="M164.987 65.3594C183.034 65.3594 197.664 50.7295 197.664 32.6826C197.664 14.6357 183.034 0.0057373 164.987 0.0057373C146.94 0.0057373 132.31 14.6357 132.31 32.6826C132.31 50.7295 146.94 65.3594 164.987 65.3594Z" stroke="white" stroke-width="0.5" stroke-miterlimit="10"/>
<path d="M164.987 0.0057373V65.3594" stroke="white" stroke-width="0.5" stroke-miterlimit="10"/>
<path d="M132.31 32.6826H197.664" stroke="white" stroke-width="0.5" stroke-miterlimit="10"/>
<path d="M132.31 65.3595V0.0057373L66.9568 0.0057373V65.3595H132.31Z" stroke="white" stroke-width="0.5" stroke-miterlimit="10"/>
<path d="M99.6336 65.3594C117.68 65.3594 132.31 50.7295 132.31 32.6826C132.31 14.6357 117.68 0.0057373 99.6336 0.0057373C81.5866 0.0057373 66.9567 14.6357 66.9567 32.6826C66.9567 50.7295 81.5866 65.3594 99.6336 65.3594Z" stroke="white" stroke-width="0.5" stroke-miterlimit="10"/>
<path d="M99.6335 0.0057373V65.3594" stroke="white" stroke-width="0.5" stroke-miterlimit="10"/>
<path d="M66.9683 32.6826H132.31" stroke="white" stroke-width="0.5" stroke-miterlimit="10"/>
<path d="M361.037 65.3595V0.0057373L328.36 0.0057373V65.3595H361.037Z" stroke="white" stroke-width="0.5" stroke-miterlimit="10"/>
<path d="M361.037 65.3479C356.695 65.4296 352.38 64.6449 348.344 63.0397C344.309 61.4345 340.634 59.041 337.534 55.9991C334.435 52.9572 331.973 49.328 330.292 45.3236C328.611 41.3191 327.745 37.0198 327.745 32.6769C327.745 28.334 328.611 24.0346 330.292 20.0301C331.973 16.0257 334.435 12.3965 337.534 9.35458C340.634 6.3127 344.309 3.91921 348.344 2.31402C352.38 0.708825 356.695 -0.075897 361.037 0.00577965" stroke="white" stroke-width="0.5" stroke-miterlimit="10"/>
<path d="M328.36 32.6826H361.037" stroke="white" stroke-width="0.5" stroke-miterlimit="10"/>
<path d="M34.2915 65.3479C29.9494 65.4296 25.6344 64.6449 21.5991 63.0397C17.5637 61.4345 13.8888 59.041 10.7892 55.9991C7.68954 52.9572 5.22736 49.328 3.54656 45.3236C1.86575 41.3191 1 37.0198 1 32.6769C1 28.334 1.86575 24.0346 3.54656 20.0301C5.22736 16.0257 7.68954 12.3965 10.7892 9.35458C13.8888 6.3127 17.5637 3.91921 21.5991 2.31402C25.6344 0.708825 29.9494 -0.075897 34.2915 0.00577965" stroke="white" stroke-width="0.5" stroke-miterlimit="10"/>
<path d="M1.61456 32.6826H34.2914" stroke="white" stroke-width="0.5" stroke-miterlimit="10"/>
<path d="M66.9682 65.3594V0.00585938L34.2913 0.00585938L34.2913 65.3594H66.9682Z" stroke="white" stroke-width="0.5" stroke-miterlimit="10"/>
<path d="M34.2915 0.00577965C38.6336 -0.075897 42.9484 0.708825 46.9838 2.31402C51.0192 3.91921 54.694 6.3127 57.7937 9.35458C60.8933 12.3965 63.3555 16.0257 65.0363 20.0301C66.7171 24.0346 67.5828 28.334 67.5828 32.6769C67.5828 37.0198 66.7171 41.3191 65.0363 45.3236C63.3555 49.328 60.8933 52.9572 57.7937 55.9991C54.694 59.041 51.0192 61.4345 46.9838 63.0397C42.9484 64.6449 38.6336 65.4296 34.2915 65.3479" stroke="white" stroke-width="0.5" stroke-miterlimit="10"/>
<path d="M34.2914 0.0057373V65.3594" stroke="white" stroke-width="0.5" stroke-miterlimit="10"/>
<path d="M34.2914 32.6826H66.9683" stroke="white" stroke-width="0.5" stroke-miterlimit="10"/>
</g>
</svg>
