<svg width="361" height="328" viewBox="0 0 361 328" fill="none" xmlns="http://www.w3.org/2000/svg">
<g opacity="0.3">
<path d="M327.36 131.696V66.3423H262.006V131.696H327.36Z" stroke="white" stroke-width="0.5" stroke-miterlimit="10"/>
<path d="M294.683 131.707C312.73 131.707 327.36 117.077 327.36 99.0304C327.36 80.9834 312.73 66.3535 294.683 66.3535C276.636 66.3535 262.006 80.9834 262.006 99.0304C262.006 117.077 276.636 131.707 294.683 131.707Z" stroke="white" stroke-width="0.5" stroke-miterlimit="10"/>
<path d="M294.683 66.3535V131.707" stroke="white" stroke-width="0.5" stroke-miterlimit="10"/>
<path d="M262.018 99.0305H327.36" stroke="white" stroke-width="0.5" stroke-miterlimit="10"/>
<path d="M327.36 197.049V131.696H262.006V197.049H327.36Z" stroke="white" stroke-width="0.5" stroke-miterlimit="10"/>
<path d="M294.683 197.049C312.73 197.049 327.36 182.42 327.36 164.373C327.36 146.326 312.73 131.696 294.683 131.696C276.636 131.696 262.006 146.326 262.006 164.373C262.006 182.42 276.636 197.049 294.683 197.049Z" stroke="white" stroke-width="0.5" stroke-miterlimit="10"/>
<path d="M294.683 131.707V197.049" stroke="white" stroke-width="0.5" stroke-miterlimit="10"/>
<path d="M262.018 164.373H327.36" stroke="white" stroke-width="0.5" stroke-miterlimit="10"/>
<path d="M327.36 262.403V197.05H262.006V262.403H327.36Z" stroke="white" stroke-width="0.5" stroke-miterlimit="10"/>
<path d="M294.683 262.403C312.73 262.403 327.36 247.773 327.36 229.726C327.36 211.679 312.73 197.049 294.683 197.049C276.636 197.049 262.006 211.679 262.006 229.726C262.006 247.773 276.636 262.403 294.683 262.403Z" stroke="white" stroke-width="0.5" stroke-miterlimit="10"/>
<path d="M294.683 197.049V262.403" stroke="white" stroke-width="0.5" stroke-miterlimit="10"/>
<path d="M262.018 229.726H327.36" stroke="white" stroke-width="0.5" stroke-miterlimit="10"/>
<path d="M262.006 131.707V66.3538H196.652V131.707H262.006Z" stroke="white" stroke-width="0.5" stroke-miterlimit="10"/>
<path d="M229.341 131.707C247.388 131.707 262.018 117.077 262.018 99.0304C262.018 80.9834 247.388 66.3535 229.341 66.3535C211.294 66.3535 196.664 80.9834 196.664 99.0304C196.664 117.077 211.294 131.707 229.341 131.707Z" stroke="white" stroke-width="0.5" stroke-miterlimit="10"/>
<path d="M229.341 66.3535V131.707" stroke="white" stroke-width="0.5" stroke-miterlimit="10"/>
<path d="M196.664 99.0305H262.018" stroke="white" stroke-width="0.5" stroke-miterlimit="10"/>
<path d="M262.018 197.061V131.708H196.664V197.061H262.018Z" stroke="white" stroke-width="0.5" stroke-miterlimit="10"/>
<path d="M229.341 197.049C247.388 197.049 262.018 182.42 262.018 164.373C262.018 146.326 247.388 131.696 229.341 131.696C211.294 131.696 196.664 146.326 196.664 164.373C196.664 182.42 211.294 197.049 229.341 197.049Z" stroke="white" stroke-width="0.5" stroke-miterlimit="10"/>
<path d="M229.341 131.707V197.049" stroke="white" stroke-width="0.5" stroke-miterlimit="10"/>
<path d="M196.664 164.373H262.018" stroke="white" stroke-width="0.5" stroke-miterlimit="10"/>
<path d="M262.006 262.403V197.049H196.652V262.403H262.006Z" stroke="white" stroke-width="0.5" stroke-miterlimit="10"/>
<path d="M229.341 262.403C247.388 262.403 262.018 247.773 262.018 229.726C262.018 211.679 247.388 197.049 229.341 197.049C211.294 197.049 196.664 211.679 196.664 229.726C196.664 247.773 211.294 262.403 229.341 262.403Z" stroke="white" stroke-width="0.5" stroke-miterlimit="10"/>
<path d="M229.341 197.049V262.403" stroke="white" stroke-width="0.5" stroke-miterlimit="10"/>
<path d="M196.664 229.726H262.018" stroke="white" stroke-width="0.5" stroke-miterlimit="10"/>
<path d="M262.018 327.757V262.403H196.664V327.757H262.018Z" stroke="white" stroke-width="0.5" stroke-miterlimit="10"/>
<path d="M229.341 327.757C247.388 327.757 262.018 313.127 262.018 295.08C262.018 277.033 247.388 262.403 229.341 262.403C211.294 262.403 196.664 277.033 196.664 295.08C196.664 313.127 211.294 327.757 229.341 327.757Z" stroke="white" stroke-width="0.5" stroke-miterlimit="10"/>
<path d="M229.341 262.403V327.757" stroke="white" stroke-width="0.5" stroke-miterlimit="10"/>
<path d="M196.664 295.08H262.018" stroke="white" stroke-width="0.5" stroke-miterlimit="10"/>
<path d="M196.652 131.707V66.3535H131.299V131.707H196.652Z" stroke="white" stroke-width="0.5" stroke-miterlimit="10"/>
<path d="M163.987 131.707C182.034 131.707 196.664 117.077 196.664 99.0304C196.664 80.9834 182.034 66.3535 163.987 66.3535C145.94 66.3535 131.31 80.9834 131.31 99.0304C131.31 117.077 145.94 131.707 163.987 131.707Z" stroke="white" stroke-width="0.5" stroke-miterlimit="10"/>
<path d="M163.987 66.3535V131.707" stroke="white" stroke-width="0.5" stroke-miterlimit="10"/>
<path d="M131.31 99.0305H196.664" stroke="white" stroke-width="0.5" stroke-miterlimit="10"/>
<path d="M196.664 197.05V131.696H131.31V197.05H196.664Z" stroke="white" stroke-width="0.5" stroke-miterlimit="10"/>
<path d="M163.987 197.049C182.034 197.049 196.664 182.42 196.664 164.373C196.664 146.326 182.034 131.696 163.987 131.696C145.94 131.696 131.31 146.326 131.31 164.373C131.31 182.42 145.94 197.049 163.987 197.049Z" stroke="white" stroke-width="0.5" stroke-miterlimit="10"/>
<path d="M163.987 131.707V197.049" stroke="white" stroke-width="0.5" stroke-miterlimit="10"/>
<path d="M131.31 164.373H196.664" stroke="white" stroke-width="0.5" stroke-miterlimit="10"/>
<path d="M196.664 262.403V197.049H131.31V262.403H196.664Z" stroke="white" stroke-width="0.5" stroke-miterlimit="10"/>
<path d="M163.987 262.403C182.034 262.403 196.664 247.773 196.664 229.726C196.664 211.679 182.034 197.049 163.987 197.049C145.94 197.049 131.31 211.679 131.31 229.726C131.31 247.773 145.94 262.403 163.987 262.403Z" stroke="white" stroke-width="0.5" stroke-miterlimit="10"/>
<path d="M163.987 197.049V262.403" stroke="white" stroke-width="0.5" stroke-miterlimit="10"/>
<path d="M131.31 229.726H196.664" stroke="white" stroke-width="0.5" stroke-miterlimit="10"/>
<path d="M196.664 327.757V262.403H131.31V327.757H196.664Z" stroke="white" stroke-width="0.5" stroke-miterlimit="10"/>
<path d="M163.987 327.757C182.034 327.757 196.664 313.127 196.664 295.08C196.664 277.033 182.034 262.403 163.987 262.403C145.94 262.403 131.31 277.033 131.31 295.08C131.31 313.127 145.94 327.757 163.987 327.757Z" stroke="white" stroke-width="0.5" stroke-miterlimit="10"/>
<path d="M163.987 262.403V327.757" stroke="white" stroke-width="0.5" stroke-miterlimit="10"/>
<path d="M131.31 295.08H196.664" stroke="white" stroke-width="0.5" stroke-miterlimit="10"/>
<path d="M131.31 66.3652V1.01147L65.9567 1.01147V66.3652H131.31Z" stroke="white" stroke-width="0.5" stroke-miterlimit="10"/>
<path d="M98.6335 66.3537C116.68 66.3537 131.31 51.7237 131.31 33.6768C131.31 15.6299 116.68 1 98.6335 1C80.5866 1 65.9567 15.6299 65.9567 33.6768C65.9567 51.7237 80.5866 66.3537 98.6335 66.3537Z" stroke="white" stroke-width="0.5" stroke-miterlimit="10"/>
<path d="M98.6335 1V66.3537" stroke="white" stroke-width="0.5" stroke-miterlimit="10"/>
<path d="M65.9683 33.6768H131.31" stroke="white" stroke-width="0.5" stroke-miterlimit="10"/>
<path d="M131.31 131.707V66.3535H65.9566V131.707H131.31Z" stroke="white" stroke-width="0.5" stroke-miterlimit="10"/>
<path d="M98.6335 131.707C116.68 131.707 131.31 117.077 131.31 99.0304C131.31 80.9834 116.68 66.3535 98.6335 66.3535C80.5866 66.3535 65.9567 80.9834 65.9567 99.0304C65.9567 117.077 80.5866 131.707 98.6335 131.707Z" stroke="white" stroke-width="0.5" stroke-miterlimit="10"/>
<path d="M98.6335 66.3535V131.707" stroke="white" stroke-width="0.5" stroke-miterlimit="10"/>
<path d="M65.9683 99.0305H131.31" stroke="white" stroke-width="0.5" stroke-miterlimit="10"/>
<path d="M131.31 197.061V131.707H65.9567V197.061H131.31Z" stroke="white" stroke-width="0.5" stroke-miterlimit="10"/>
<path d="M98.6335 197.049C116.68 197.049 131.31 182.42 131.31 164.373C131.31 146.326 116.68 131.696 98.6335 131.696C80.5866 131.696 65.9567 146.326 65.9567 164.373C65.9567 182.42 80.5866 197.049 98.6335 197.049Z" stroke="white" stroke-width="0.5" stroke-miterlimit="10"/>
<path d="M98.6335 131.707V197.049" stroke="white" stroke-width="0.5" stroke-miterlimit="10"/>
<path d="M65.9683 164.373H131.31" stroke="white" stroke-width="0.5" stroke-miterlimit="10"/>
<path d="M131.31 262.415V197.061H65.9567V262.415H131.31Z" stroke="white" stroke-width="0.5" stroke-miterlimit="10"/>
<path d="M98.6335 262.403C116.68 262.403 131.31 247.773 131.31 229.726C131.31 211.679 116.68 197.049 98.6335 197.049C80.5866 197.049 65.9567 211.679 65.9567 229.726C65.9567 247.773 80.5866 262.403 98.6335 262.403Z" stroke="white" stroke-width="0.5" stroke-miterlimit="10"/>
<path d="M98.6335 197.049V262.403" stroke="white" stroke-width="0.5" stroke-miterlimit="10"/>
<path d="M65.9683 229.726H131.31" stroke="white" stroke-width="0.5" stroke-miterlimit="10"/>
<path d="M360.037 262.415V197.061H327.36V262.415H360.037Z" stroke="white" stroke-width="0.5" stroke-miterlimit="10"/>
<path d="M360.037 262.391C355.694 262.473 351.38 261.688 347.344 260.083C343.309 258.478 339.634 256.084 336.534 253.043C333.435 250.001 330.972 246.371 329.292 242.367C327.611 238.363 326.745 234.063 326.745 229.72C326.745 225.377 327.611 221.078 329.292 217.074C330.972 213.069 333.435 209.44 336.534 206.398C339.634 203.356 343.309 200.963 347.344 199.357C351.38 197.752 355.694 196.968 360.037 197.049" stroke="white" stroke-width="0.5" stroke-miterlimit="10"/>
<path d="M327.36 229.726H360.037" stroke="white" stroke-width="0.5" stroke-miterlimit="10"/>
<path d="M360.037 197.061V131.707H327.36V197.061H360.037Z" stroke="white" stroke-width="0.5" stroke-miterlimit="10"/>
<path d="M360.037 197.096C351.37 197.096 343.059 193.653 336.931 187.525C330.803 181.397 327.36 173.085 327.36 164.419C327.36 155.752 330.803 147.441 336.931 141.313C343.059 135.185 351.37 131.742 360.037 131.742" stroke="white" stroke-width="0.5" stroke-miterlimit="10"/>
<path d="M327.36 164.373H360.037" stroke="white" stroke-width="0.5" stroke-miterlimit="10"/>
<path d="M360.037 131.707V66.3535H327.36V131.707H360.037Z" stroke="white" stroke-width="0.5" stroke-miterlimit="10"/>
<path d="M360.037 131.696C355.694 131.778 351.38 130.993 347.344 129.388C343.309 127.782 339.634 125.389 336.534 122.347C333.435 119.305 330.972 115.676 329.292 111.671C327.611 107.667 326.745 103.368 326.745 99.0248C326.745 94.6819 327.611 90.3825 329.292 86.378C330.972 82.3736 333.435 78.7444 336.534 75.7025C339.634 72.6606 343.309 70.2671 347.344 68.6619C351.38 67.0567 355.694 66.272 360.037 66.3537" stroke="white" stroke-width="0.5" stroke-miterlimit="10"/>
<path d="M327.36 99.0305H360.037" stroke="white" stroke-width="0.5" stroke-miterlimit="10"/>
<path d="M65.9567 197.049V131.696H33.2799L33.2799 197.049H65.9567Z" stroke="white" stroke-width="0.5" stroke-miterlimit="10"/>
<path d="M33.2915 131.696C41.9579 131.696 50.2694 135.138 56.3975 141.267C62.5256 147.395 65.9682 155.706 65.9682 164.373C65.9682 173.039 62.5256 181.351 56.3975 187.479C50.2694 193.607 41.9579 197.049 33.2915 197.049" stroke="white" stroke-width="0.5" stroke-miterlimit="10"/>
<path d="M33.2914 131.707V197.049" stroke="white" stroke-width="0.5" stroke-miterlimit="10"/>
<path d="M33.2914 164.373H65.9683" stroke="white" stroke-width="0.5" stroke-miterlimit="10"/>
<path d="M65.9683 131.707V66.3538H33.2914L33.2914 131.707H65.9683Z" stroke="white" stroke-width="0.5" stroke-miterlimit="10"/>
<path d="M33.2915 66.3537C37.6336 66.272 41.9484 67.0567 45.9838 68.6619C50.0192 70.2671 53.694 72.6606 56.7937 75.7025C59.8933 78.7444 62.3555 82.3736 64.0363 86.378C65.7171 90.3825 66.5828 94.6819 66.5828 99.0248C66.5828 103.368 65.7171 107.667 64.0363 111.671C62.3555 115.676 59.8933 119.305 56.7937 122.347C53.694 125.389 50.0192 127.782 45.9838 129.388C41.9484 130.993 37.6336 131.778 33.2915 131.696" stroke="white" stroke-width="0.5" stroke-miterlimit="10"/>
<path d="M33.2914 66.3535V131.707" stroke="white" stroke-width="0.5" stroke-miterlimit="10"/>
<path d="M33.2914 99.0305H65.9683" stroke="white" stroke-width="0.5" stroke-miterlimit="10"/>
<path d="M65.9683 66.3536V1L33.2914 1L33.2914 66.3536H65.9683Z" stroke="white" stroke-width="0.5" stroke-miterlimit="10"/>
<path d="M33.2915 1C37.5827 1 41.8317 1.84527 45.7963 3.48744C49.7608 5.1296 53.3631 7.53657 56.3975 10.5709C59.4318 13.6052 61.8388 17.2074 63.4809 21.1719C65.1231 25.1365 65.9682 29.3857 65.9682 33.6769C65.9682 37.968 65.1231 42.2172 63.4809 46.1818C61.8388 50.1463 59.4318 53.7485 56.3975 56.7828C53.3631 59.8171 49.7608 62.2241 45.7963 63.8663C41.8317 65.5084 37.5827 66.3537 33.2915 66.3537" stroke="white" stroke-width="0.5" stroke-miterlimit="10"/>
<path d="M33.2914 1V66.3537" stroke="white" stroke-width="0.5" stroke-miterlimit="10"/>
<path d="M33.2914 33.6768H65.9683" stroke="white" stroke-width="0.5" stroke-miterlimit="10"/>
<path d="M33.2798 197.049L33.2798 131.696H0.603069L0.603069 197.049H33.2798Z" stroke="white" stroke-width="0.5" stroke-miterlimit="10"/>
<path d="M33.2915 197.096C24.625 197.096 16.3135 193.653 10.1854 187.525C4.05728 181.397 0.614624 173.085 0.614624 164.419C0.614624 155.752 4.05728 147.441 10.1854 141.313C16.3135 135.185 24.625 131.742 33.2915 131.742" stroke="white" stroke-width="0.5" stroke-miterlimit="10"/>
<path d="M0.614624 164.373H33.2915" stroke="white" stroke-width="0.5" stroke-miterlimit="10"/>
<path d="M33.2914 131.696L33.2914 66.3423H0.614525L0.614525 131.696H33.2914Z" stroke="white" stroke-width="0.5" stroke-miterlimit="10"/>
<path d="M33.2915 131.696C28.9494 131.778 24.6344 130.993 20.5991 129.388C16.5637 127.782 12.8888 125.389 9.78917 122.347C6.68954 119.305 4.22736 115.676 2.54656 111.671C0.865752 107.667 0 103.368 0 99.0248C0 94.6819 0.865752 90.3825 2.54656 86.378C4.22736 82.3736 6.68954 78.7444 9.78917 75.7025C12.8888 72.6606 16.5637 70.2671 20.5991 68.6619C24.6344 67.0567 28.9494 66.272 33.2915 66.3537" stroke="white" stroke-width="0.5" stroke-miterlimit="10"/>
<path d="M0.614624 99.0305H33.2915" stroke="white" stroke-width="0.5" stroke-miterlimit="10"/>
<path d="M33.2914 66.3536L33.2914 1L0.614586 1L0.614586 66.3536H33.2914Z" stroke="white" stroke-width="0.5" stroke-miterlimit="10"/>
<path d="M33.2915 66.3537C29.0003 66.3537 24.7511 65.5084 20.7866 63.8663C16.822 62.2241 13.2197 59.8171 10.1854 56.7828C7.15105 53.7485 4.74408 50.1463 3.10192 46.1818C1.45975 42.2172 0.614624 37.968 0.614624 33.6769C0.614624 29.3857 1.45975 25.1365 3.10192 21.1719C4.74408 17.2074 7.15105 13.6052 10.1854 10.5709C13.2197 7.53657 16.822 5.1296 20.7866 3.48744C24.7511 1.84527 29.0003 1 33.2915 1" stroke="white" stroke-width="0.5" stroke-miterlimit="10"/>
<path d="M0.614624 33.6768H33.2915" stroke="white" stroke-width="0.5" stroke-miterlimit="10"/>
</g>
</svg>
