<svg width="1529" height="538" viewBox="0 0 1529 538" fill="none" xmlns="http://www.w3.org/2000/svg">
<mask id="mask0_296_279" style="mask-type:alpha" maskUnits="userSpaceOnUse" x="0" y="0" width="1529" height="538">
<rect x="1529" y="538" width="1529" height="538" transform="rotate(180 1529 538)" fill="#D9D9D9"/>
</mask>
<g mask="url(#mask0_296_279)">
<path d="M-0.996094 538V403.474V312.618L218.362 229.293L1413.54 73.6839L1531.5 100.79V135.425C1474.78 147.974 713.8 91.7545 -0.996094 538Z" fill="#428EFF" stroke="#202124" stroke-width="3"/>
<path d="M-2.00012 432.086V279.489L200.291 209.716L1370.87 24.9937L1531.5 78.2018V113.841C1483.71 113.841 685.69 99.7862 -2.00012 432.086Z" fill="#FF5145" stroke="#202124" stroke-width="3"/>
<path d="M-2.42029 204.728L-2.49609 204.957V205.199V336.211V338.321L-0.50293 337.628C729.227 83.577 1431.82 88.9867 1523.83 89.6951C1527.23 89.7213 1529.8 89.741 1531.5 89.741H1533V88.241V50.0918V48.497L1531.41 48.5946L139.964 133.928L139.954 133.929L139.944 133.93L18.9707 142.965L17.9724 143.04L17.6582 143.99L-2.42029 204.728Z" fill="#38A852" stroke="#202124" stroke-width="3"/>
<path d="M-1.45667 166.401L-1.99414 166.85V167.551V246.861V248.789L-0.125488 248.315C714.478 67.1554 1509.83 65.6467 1531.5 65.6467H1533V64.1467V35.5348V34.0348H1531.5H1461.73H1461.7L1461.67 34.0358L97.8361 83.7301L97.3223 83.7489L96.9281 84.0787L-1.45667 166.401Z" fill="#FFBB01" stroke="#202124" stroke-width="3"/>
<path d="M-0.494141 171.065V105.81L48.6982 20.476L1460.72 15.9583H1532V43.0643C1421.17 43.0643 714.804 45.0722 -0.494141 171.065Z" fill="#202124"/>
<path d="M-0.494141 -0.104752H1531.5V20.4757C1292.56 20.4757 516.026 28.0052 -0.494141 108.319V-0.104752Z" fill="#202124"/>
</g>
</svg>
