<svg width="1529" height="538" viewBox="0 0 1529 538" fill="none" xmlns="http://www.w3.org/2000/svg">
<mask id="mask0_138_211" style="mask-type:alpha" maskUnits="userSpaceOnUse" x="0" y="0" width="1529" height="538">
<rect width="1529" height="538" transform="matrix(1 0 0 -1 0 538)" fill="#D9D9D9"/>
</mask>
<g mask="url(#mask0_138_211)">
<path d="M1530 538V403.474V312.618L1310.64 229.293L115.463 73.6839L-2.49805 100.79V135.425C54.2238 147.974 815.2 91.7545 1530 538Z" fill="#428EFF" stroke="#202124" stroke-width="3"/>
<path d="M1531 432.086V279.489L1328.71 209.716L158.13 24.9937L-2.49805 78.2018V113.841C45.2889 113.841 843.31 99.7862 1531 432.086Z" fill="#FF5145" stroke="#202124" stroke-width="3"/>
<path d="M1531.42 204.728L1531.5 204.957V205.199V336.211V338.321L1529.5 337.628C799.773 83.577 97.1786 88.9867 5.1721 89.6951C1.77142 89.7213 -0.79512 89.741 -2.49805 89.741H-3.99805V88.241V50.0918V48.497L-2.40623 48.5946L1389.04 133.928L1389.05 133.929L1389.06 133.93L1510.03 142.965L1511.03 143.04L1511.34 143.99L1531.42 204.728Z" fill="#38A852" stroke="#202124" stroke-width="3"/>
<path d="M1530.46 166.401L1530.99 166.85V167.551V246.861V248.789L1529.13 248.315C814.522 67.1554 19.1699 65.6467 -2.49805 65.6467H-3.99805V64.1467V35.5348V34.0348H-2.49805H67.2749H67.3022L67.3295 34.0358L1431.16 83.7301L1431.68 83.7489L1432.07 84.0787L1530.46 166.401Z" fill="#FFBB01" stroke="#202124" stroke-width="3"/>
<path d="M1529.49 171.065V105.81L1480.3 20.476L68.2788 15.9583H-3V43.0643C107.834 43.0643 814.196 45.0722 1529.49 171.065Z" fill="#202124"/>
<path d="M1529.49 -0.104752H-2.49805V20.4757C236.437 20.4757 1012.97 28.0052 1529.49 108.319V-0.104752Z" fill="#DADCE0"/>
</g>
</svg>
