<svg width="355" height="263" viewBox="0 0 355 263" fill="none" xmlns="http://www.w3.org/2000/svg">
<g opacity="0.3">
<path d="M26.677 131.701L26.677 66.3479H92.0306V131.701H26.677Z" stroke="white" stroke-width="0.5" stroke-miterlimit="10"/>
<path d="M59.3537 131.702C41.3068 131.702 26.6769 117.072 26.6769 99.0247C26.6769 80.9778 41.3068 66.3479 59.3537 66.3479C77.4006 66.3479 92.0305 80.9778 92.0305 99.0247C92.0305 117.072 77.4006 131.702 59.3537 131.702Z" stroke="white" stroke-width="0.5" stroke-miterlimit="10"/>
<path d="M59.3537 66.3594V131.701" stroke="white" stroke-width="0.5" stroke-miterlimit="10"/>
<path d="M92.019 99.0247H16.2739" stroke="white" stroke-width="0.5" stroke-miterlimit="10"/>
<path d="M26.6769 197.055L26.6769 131.702H92.0306V197.055H26.6769Z" stroke="white" stroke-width="0.5" stroke-miterlimit="10"/>
<path d="M59.3537 197.055C41.3068 197.055 26.6769 182.425 26.6769 164.378C26.6769 146.332 41.3068 131.702 59.3537 131.702C77.4006 131.702 92.0305 146.332 92.0305 164.378C92.0305 182.425 77.4006 197.055 59.3537 197.055Z" stroke="white" stroke-width="0.5" stroke-miterlimit="10"/>
<path d="M59.3537 131.702V197.055" stroke="white" stroke-width="0.5" stroke-miterlimit="10"/>
<path d="M92.019 164.378H26.6769" stroke="white" stroke-width="0.5" stroke-miterlimit="10"/>
<path d="M26.6769 262.397L26.6769 197.044H92.0306V262.397H26.6769Z" stroke="white" stroke-width="0.5" stroke-miterlimit="10"/>
<path d="M59.3537 262.409C41.3068 262.409 26.6769 247.779 26.6769 229.732C26.6769 211.685 41.3068 197.055 59.3537 197.055C77.4006 197.055 92.0305 211.685 92.0305 229.732C92.0305 247.779 77.4006 262.409 59.3537 262.409Z" stroke="white" stroke-width="0.5" stroke-miterlimit="10"/>
<path d="M59.3537 197.055V262.409" stroke="white" stroke-width="0.5" stroke-miterlimit="10"/>
<path d="M92.019 229.732H26.6769" stroke="white" stroke-width="0.5" stroke-miterlimit="10"/>
<path d="M92.019 131.713V66.3594H157.373V131.713H92.019Z" stroke="white" stroke-width="0.5" stroke-miterlimit="10"/>
<path d="M124.696 131.702C106.649 131.702 92.019 117.072 92.019 99.0247C92.019 80.9778 106.649 66.3479 124.696 66.3479C142.743 66.3479 157.373 80.9778 157.373 99.0247C157.373 117.072 142.743 131.702 124.696 131.702Z" stroke="white" stroke-width="0.5" stroke-miterlimit="10"/>
<path d="M124.696 66.3594V131.701" stroke="white" stroke-width="0.5" stroke-miterlimit="10"/>
<path d="M157.373 99.0247H92.019" stroke="white" stroke-width="0.5" stroke-miterlimit="10"/>
<path d="M92.0305 197.055V131.702H157.384V197.055H92.0305Z" stroke="white" stroke-width="0.5" stroke-miterlimit="10"/>
<path d="M124.696 197.055C106.649 197.055 92.019 182.425 92.019 164.378C92.019 146.332 106.649 131.702 124.696 131.702C142.743 131.702 157.373 146.332 157.373 164.378C157.373 182.425 142.743 197.055 124.696 197.055Z" stroke="white" stroke-width="0.5" stroke-miterlimit="10"/>
<path d="M124.696 131.702V197.055" stroke="white" stroke-width="0.5" stroke-miterlimit="10"/>
<path d="M157.373 164.378H92.019" stroke="white" stroke-width="0.5" stroke-miterlimit="10"/>
<path d="M157.373 131.702V66.3479H222.726V131.702H157.373Z" stroke="white" stroke-width="0.5" stroke-miterlimit="10"/>
<path d="M190.049 131.702C172.003 131.702 157.373 117.072 157.373 99.0247C157.373 80.9778 172.003 66.3479 190.049 66.3479C208.096 66.3479 222.726 80.9778 222.726 99.0247C222.726 117.072 208.096 131.702 190.049 131.702Z" stroke="white" stroke-width="0.5" stroke-miterlimit="10"/>
<path d="M190.049 66.3594V131.701" stroke="white" stroke-width="0.5" stroke-miterlimit="10"/>
<path d="M222.726 99.0247H157.373" stroke="white" stroke-width="0.5" stroke-miterlimit="10"/>
<path d="M-5.99994 262.409L-5.99994 197.055H26.6769L26.6769 262.409H-5.99994Z" stroke="white" stroke-width="0.5" stroke-miterlimit="10"/>
<path d="M-5.99996 262.397C-1.65783 262.479 2.65696 261.694 6.69232 260.089C10.7277 258.484 14.4027 256.09 17.5023 253.048C20.602 250.007 23.0642 246.377 24.745 242.373C26.4258 238.368 27.2914 234.069 27.2914 229.726C27.2914 225.383 26.4258 221.084 24.745 217.079C23.0642 213.075 20.602 209.446 17.5023 206.404C14.4027 203.362 10.7277 200.969 6.69232 199.363C2.65696 197.758 -1.65783 196.973 -5.99996 197.055" stroke="white" stroke-width="0.5" stroke-miterlimit="10"/>
<path d="M26.6769 229.732H-5.99998" stroke="white" stroke-width="0.5" stroke-miterlimit="10"/>
<path d="M-6 197.067L-6 131.713H26.6769L26.6769 197.067H-6Z" stroke="white" stroke-width="0.5" stroke-miterlimit="10"/>
<path d="M-5.99998 197.055C-1.70879 197.055 2.54039 196.21 6.50493 194.568C10.4695 192.926 14.0717 190.519 17.106 187.484C20.1403 184.45 22.5473 180.848 24.1894 176.883C25.8316 172.919 26.6769 168.67 26.6769 164.379C26.6769 160.087 25.8316 155.838 24.1894 151.874C22.5473 147.909 20.1403 144.307 17.106 141.273C14.0717 138.238 10.4695 135.831 6.50493 134.189C2.54039 132.547 -1.70879 131.702 -5.99998 131.702" stroke="white" stroke-width="0.5" stroke-miterlimit="10"/>
<path d="M26.6769 164.378H-5.99998" stroke="white" stroke-width="0.5" stroke-miterlimit="10"/>
<path d="M-6 131.713L-6 66.3594H26.6769L26.6769 131.713H-6Z" stroke="white" stroke-width="0.5" stroke-miterlimit="10"/>
<path d="M-5.99998 131.701C2.66646 131.701 10.9779 128.259 17.106 122.131C23.2341 116.003 26.6769 107.691 26.6769 99.0246C26.6769 90.3582 23.2341 82.0467 17.106 75.9187C10.9779 69.7906 2.66646 66.3479 -5.99998 66.3479" stroke="white" stroke-width="0.5" stroke-miterlimit="10"/>
<path d="M26.6769 99.0247H-5.99998" stroke="white" stroke-width="0.5" stroke-miterlimit="10"/>
<path d="M26.6769 66.3594L26.6769 1.00586L92.0304 1.00586V66.3594H26.6769Z" stroke="white" stroke-width="0.5" stroke-miterlimit="10"/>
<path d="M59.3537 66.3595C41.3068 66.3595 26.6769 51.7296 26.6769 33.6827C26.6769 15.6358 41.3068 1.00586 59.3537 1.00586C77.4006 1.00586 92.0305 15.6358 92.0305 33.6827C92.0305 51.7296 77.4006 66.3595 59.3537 66.3595Z" stroke="white" stroke-width="0.5" stroke-miterlimit="10"/>
<path d="M59.3537 1.00586V66.3595" stroke="white" stroke-width="0.5" stroke-miterlimit="10"/>
<path d="M92.019 33.6826H16.2739" stroke="white" stroke-width="0.5" stroke-miterlimit="10"/>
<path d="M92.0306 66.3594V1.00586L157.384 1.00586V66.3594H92.0306Z" stroke="white" stroke-width="0.5" stroke-miterlimit="10"/>
<path d="M124.696 66.3595C106.649 66.3595 92.019 51.7296 92.019 33.6827C92.019 15.6358 106.649 1.00586 124.696 1.00586C142.743 1.00586 157.373 15.6358 157.373 33.6827C157.373 51.7296 142.743 66.3595 124.696 66.3595Z" stroke="white" stroke-width="0.5" stroke-miterlimit="10"/>
<path d="M124.696 1.00586V66.3595" stroke="white" stroke-width="0.5" stroke-miterlimit="10"/>
<path d="M157.373 33.6826H92.019" stroke="white" stroke-width="0.5" stroke-miterlimit="10"/>
<path d="M157.373 66.3596V1.00586L222.726 1.00586V66.3596H157.373Z" stroke="white" stroke-width="0.5" stroke-miterlimit="10"/>
<path d="M190.049 66.3595C172.003 66.3595 157.373 51.7296 157.373 33.6827C157.373 15.6358 172.003 1.00586 190.049 1.00586C208.096 1.00586 222.726 15.6358 222.726 33.6827C222.726 51.7296 208.096 66.3595 190.049 66.3595Z" stroke="white" stroke-width="0.5" stroke-miterlimit="10"/>
<path d="M190.049 1.00586V66.3595" stroke="white" stroke-width="0.5" stroke-miterlimit="10"/>
<path d="M222.726 33.6826H157.373" stroke="white" stroke-width="0.5" stroke-miterlimit="10"/>
<path d="M222.726 66.3596V1.00586L288.08 1.00586V66.3596H222.726Z" stroke="white" stroke-width="0.5" stroke-miterlimit="10"/>
<path d="M255.403 66.3595C237.356 66.3595 222.726 51.7296 222.726 33.6827C222.726 15.6358 237.356 1.00586 255.403 1.00586C273.45 1.00586 288.08 15.6358 288.08 33.6827C288.08 51.7296 273.45 66.3595 255.403 66.3595Z" stroke="white" stroke-width="0.5" stroke-miterlimit="10"/>
<path d="M255.403 1.00586V66.3595" stroke="white" stroke-width="0.5" stroke-miterlimit="10"/>
<path d="M288.068 33.6826H222.726" stroke="white" stroke-width="0.5" stroke-miterlimit="10"/>
<path d="M-5.99988 66.3596L-5.99988 1.00586L26.677 1.00586L26.677 66.3596H-5.99988Z" stroke="white" stroke-width="0.5" stroke-miterlimit="10"/>
<path d="M-5.99996 66.3479C-1.65783 66.4296 2.65696 65.6449 6.69232 64.0397C10.7277 62.4345 14.4027 60.041 17.5023 56.9991C20.602 53.9572 23.0642 50.328 24.745 46.3236C26.4258 42.3191 27.2914 38.0198 27.2914 33.6769C27.2914 29.334 26.4258 25.0346 24.745 21.0301C23.0642 17.0257 20.602 13.3965 17.5023 10.3546C14.4027 7.3127 10.7277 4.91921 6.69232 3.31402C2.65696 1.70882 -1.65783 0.924103 -5.99996 1.00578" stroke="white" stroke-width="0.5" stroke-miterlimit="10"/>
<path d="M26.6769 33.6826H-5.99998" stroke="white" stroke-width="0.5" stroke-miterlimit="10"/>
<path d="M320.745 66.3479C325.087 66.4296 329.402 65.6449 333.438 64.0397C337.473 62.4345 341.148 60.041 344.248 56.9991C347.347 53.9572 349.809 50.328 351.49 46.3236C353.171 42.3191 354.037 38.0198 354.037 33.6769C354.037 29.334 353.171 25.0346 351.49 21.0301C349.809 17.0257 347.347 13.3965 344.248 10.3546C341.148 7.3127 337.473 4.91921 333.438 3.31402C329.402 1.70882 325.087 0.924103 320.745 1.00578" stroke="white" stroke-width="0.5" stroke-miterlimit="10"/>
<path d="M353.422 33.6826H320.745" stroke="white" stroke-width="0.5" stroke-miterlimit="10"/>
<path d="M288.068 66.3594V1.00586L320.745 1.00586V66.3594H288.068Z" stroke="white" stroke-width="0.5" stroke-miterlimit="10"/>
<path d="M320.745 1.00578C316.403 0.924103 312.088 1.70882 308.053 3.31402C304.018 4.91921 300.343 7.3127 297.243 10.3546C294.143 13.3965 291.681 17.0257 290 21.0301C288.32 25.0346 287.454 29.334 287.454 33.6769C287.454 38.0198 288.32 42.3191 290 46.3236C291.681 50.328 294.143 53.9572 297.243 56.9991C300.343 60.041 304.018 62.4345 308.053 64.0397C312.088 65.6449 316.403 66.4296 320.745 66.3479" stroke="white" stroke-width="0.5" stroke-miterlimit="10"/>
<path d="M320.745 1.00586V66.3595" stroke="white" stroke-width="0.5" stroke-miterlimit="10"/>
<path d="M320.745 33.6826H288.068" stroke="white" stroke-width="0.5" stroke-miterlimit="10"/>
</g>
</svg>
